<?xml version="1.0" encoding="UTF-8"?><svg xmlns="http://www.w3.org/2000/svg" xmlns:xlink="http://www.w3.org/1999/xlink" width="601.45pt" height="556.49pt" viewBox="0 0 601.45 556.49" version="1.1">
<defs>
<clipPath id="clip1">
  <path d="M 47 0 L 601.449219 0 L 601.449219 554 L 47 554 Z M 47 0 "/>
</clipPath>
<clipPath id="clip2">
  <path d="M 0 135 L 198 135 L 198 556.488281 L 0 556.488281 Z M 0 135 "/>
</clipPath>
<clipPath id="clip3">
  <path d="M 0 135 L 198 135 L 198 556.488281 L 0 556.488281 Z M 0 135 "/>
</clipPath>
</defs>
<g id="surface1">
<g clip-path="url(#clip1)" clip-rule="nonzero">
<path style=" stroke:none;fill-rule:nonzero;fill:rgb(94.499207%,34.098816%,15.699768%);fill-opacity:1;" d="M 601.449219 276.855469 C 601.449219 429.757813 477.496094 553.710938 324.59375 553.710938 C 171.6875 553.710938 47.738281 429.757813 47.738281 276.855469 C 47.738281 123.953125 171.6875 0 324.59375 0 C 477.496094 0 601.449219 123.953125 601.449219 276.855469 "/>
</g>
<g clip-path="url(#clip2)" clip-rule="nonzero">
<path style=" stroke:none;fill-rule:nonzero;fill:rgb(100%,78.799438%,2.69928%);fill-opacity:1;" d="M 178.242188 200.34375 C 173.921875 200.34375 169.464844 201.03125 165.3125 200.203125 C 156.019531 198.351563 154.355469 203.125 153.230469 210.96875 C 147.128906 253.578125 143.167969 296.34375 142.949219 339.402344 C 142.742188 380.058594 144.855469 420.652344 146.703125 461.253906 C 147.953125 488.765625 148.378906 516.3125 149.171875 543.84375 C 149.175781 543.941406 149.136719 544.039063 149.132813 544.136719 C 149.035156 557.121094 149.035156 557.109375 135.664063 556.09375 C 132.523438 555.855469 133.5 553.414063 133.347656 551.714844 C 130.867188 523.605469 129.820313 495.285156 121.316406 468.050781 C 120.59375 465.746094 120.132813 462.324219 117.058594 462.417969 C 114.125 462.507813 114.074219 465.941406 113.421875 468.144531 C 109.824219 480.28125 109.242188 492.855469 109.027344 505.355469 C 108.753906 521.253906 109.273438 537.164063 109.546875 553.070313 C 109.585938 555.277344 109.144531 556.128906 106.6875 556.148438 C 90.445313 556.273438 90.777344 556.289063 88.753906 540.210938 C 86.789063 524.601563 83.886719 509.097656 77.433594 494.59375 C 75.113281 489.382813 72.652344 483.410156 65.925781 482.71875 C 59.5625 482.066406 55.75 486.894531 52.390625 491.347656 C 39.175781 508.867188 32.023438 529.367188 24.597656 549.65625 C 22.710938 554.8125 20.359375 557.097656 14.820313 556.175781 C 11.855469 555.683594 8.660156 555.660156 5.703125 556.179688 C -0.195313 557.210938 -0.519531 553.660156 0.375 549.78125 C 4.089844 533.648438 7.175781 517.371094 12.425781 501.601563 C 21.351563 474.769531 35.652344 451.449219 58.164063 434.121094 C 86.082031 412.632813 100.675781 383.894531 108.035156 350.207031 C 115.777344 314.757813 121.15625 278.957031 126.265625 243.085938 C 128.960938 224.15625 131.769531 205.242188 134.75 186.355469 C 135.121094 183.984375 134.359375 183.605469 132.554688 183.03125 C 120.113281 179.039063 112.5625 170.863281 110.914063 157.609375 C 110.582031 154.929688 111.023438 153.929688 114.101563 153.941406 C 121.527344 153.972656 128.515625 155.382813 135.0625 158.917969 C 135.632813 159.226563 136.3125 159.335938 136.941406 159.535156 C 136.898438 158.882813 136.875 158.226563 136.808594 157.574219 C 136.382813 153.320313 133.894531 150.335938 130.800781 147.683594 C 128.816406 145.984375 128.855469 143.761719 130.234375 141.902344 C 131.894531 139.664063 134.421875 138.386719 137.222656 139.199219 C 139.511719 139.859375 141.199219 141.496094 141.402344 144.207031 C 141.566406 146.429688 141.609375 148.71875 142.210938 150.832031 C 142.90625 153.277344 144.84375 154.789063 147.464844 154.820313 C 149.234375 154.84375 150.738281 153.988281 151.160156 152.046875 C 151.742188 149.371094 150.308594 147.613281 148.359375 146.078125 C 146.027344 144.25 143.996094 142.09375 145.359375 138.882813 C 146.894531 135.257813 150.277344 134.609375 153.507813 135.566406 C 156.480469 136.445313 156.992188 139.417969 156.941406 142.308594 C 156.898438 144.710938 156.671875 147.148438 156.988281 149.507813 C 157.578125 153.898438 159.15625 155.832031 164.128906 153.207031 C 169.734375 150.25 175.960938 148.785156 182.410156 148.097656 C 188.710938 147.425781 189.664063 150.21875 187.917969 155.15625 C 185.703125 161.433594 182.453125 167.152344 176.5625 170.695313 C 174.308594 172.046875 175.160156 173.039063 176.386719 173.976563 C 181.507813 177.882813 186.042969 182.554688 192.199219 185.089844 C 196.257813 186.753906 197.769531 190.445313 196.753906 194.582031 C 195.847656 198.257813 192.988281 200.164063 189.128906 200.34375 C 185.503906 200.511719 181.875 200.664063 178.246094 200.824219 C 178.246094 200.664063 178.242188 200.503906 178.242188 200.34375 "/>
</g>
<path style=" stroke:none;fill-rule:nonzero;fill:rgb(100%,100%,100%);fill-opacity:1;" d="M 424.664063 301.023438 C 424.695313 297.882813 424.28125 295.339844 423.199219 293.132813 C 422.691406 292.097656 422.175781 290.230469 418.121094 287.726563 C 413.847656 285.089844 408.046875 282.554688 398.722656 281.742188 C 385.492188 280.59375 374.785156 285.089844 368.605469 293.476563 C 363.308594 300.675781 362.152344 309.765625 366.257813 317.917969 C 370.613281 326.574219 379.253906 332.289063 390.480469 332.546875 C 401.230469 332.796875 411.105469 329.96875 419.503906 322.828125 C 421.875 320.8125 423.304688 318.738281 423.9375 316.640625 C 424.226563 315.679688 424.691406 313.09375 424.660156 311.285156 M 424.425781 282.476563 C 424.4375 282.488281 424.441406 282.109375 424.445313 281.78125 C 424.453125 274.761719 424.675781 268.277344 424.410156 261.269531 C 423.894531 247.773438 415.503906 239.988281 402.660156 237.53125 C 390.410156 235.191406 381.265625 237.988281 371.148438 245.207031 C 368.398438 247.167969 365.609375 249.257813 363.652344 252.160156 C 362.40625 254.003906 361.722656 252.445313 361.042969 251.636719 C 359.378906 249.65625 357.78125 247.625 356.175781 245.59375 C 355.78125 245.097656 355.285156 244.621094 355.972656 243.894531 C 363.851563 235.554688 373.210938 229.746094 384.480469 227.246094 C 389.578125 226.113281 392.585938 225.382813 397.789063 225.628906 C 408.828125 226.144531 419.335938 228.492188 427.679688 236.433594 C 432.671875 241.183594 435.691406 247.167969 436.308594 254.007813 C 437.628906 268.691406 436.425781 283.433594 436.839844 295.277344 C 436.839844 311.511719 436.816406 324.882813 436.875 338.253906 C 436.878906 339.59375 436.488281 339.867188 435.238281 339.832031 C 432.066406 339.742188 428.886719 339.757813 425.710938 339.828125 C 424.648438 339.851563 424.410156 339.507813 424.429688 338.5 C 424.488281 335.050781 424.453125 331.601563 424.445313 328.148438 C 424.441406 327.898438 424.339844 327.652344 424.285156 327.402344 C 424.140625 327.566406 424.003906 327.742188 423.847656 327.898438 C 415.652344 335.96875 405.921875 340.722656 394.425781 342.066406 C 379.917969 343.765625 368.8125 340.625 359.085938 329.621094 C 351.542969 321.664063 350.179688 310.875 350.515625 303.425781 C 351.140625 294.867188 354.183594 289.640625 360.425781 283.800781 C 367.105469 277.550781 375.71875 273.9375 384.921875 273.097656 C 399.3125 271.632813 409.550781 273.652344 419.453125 279.503906 "/>
<path style=" stroke:none;fill-rule:nonzero;fill:rgb(100%,100%,100%);fill-opacity:1;" d="M 495.03125 324.507813 L 494.996094 324.570313 L 495.054688 324.574219 Z M 494.746094 339.644531 C 494.589844 339.644531 494.433594 339.644531 494.277344 339.644531 C 487.417969 339.644531 487.582031 339.578125 484.980469 333.234375 C 480.769531 322.960938 476.285156 312.800781 471.984375 302.566406 C 468.65625 294.65625 465.46875 286.683594 462.140625 278.777344 C 458.308594 269.679688 454.378906 260.628906 450.515625 251.542969 C 447.40625 244.234375 444.339844 236.90625 441.246094 229.589844 C 440.933594 228.855469 441.085938 228.585938 441.945313 228.59375 C 445.984375 228.628906 450.019531 228.628906 454.058594 228.59375 C 454.734375 228.589844 455.039063 228.867188 455.273438 229.433594 C 459.863281 240.535156 464.445313 251.640625 469.074219 262.726563 C 473.871094 274.230469 478.722656 285.714844 483.539063 297.210938 C 487.207031 305.972656 490.851563 314.742188 494.507813 323.507813 C 494.601563 323.730469 494.75 323.929688 494.871094 324.140625 C 495.066406 323.917969 495.34375 323.730469 495.445313 323.472656 C 502.464844 306.375 509.453125 289.265625 516.476563 272.167969 C 522.292969 258.003906 528.148438 243.851563 533.988281 229.691406 C 534.246094 229.074219 534.511719 228.574219 535.398438 228.585938 C 539.476563 228.640625 543.554688 228.636719 547.628906 228.589844 C 548.570313 228.578125 548.800781 229.046875 548.515625 229.710938 C 545.886719 235.839844 543.171875 241.929688 540.558594 248.0625 C 536.285156 258.09375 532.070313 268.148438 527.828125 278.191406 C 521.808594 292.449219 515.785156 306.710938 509.757813 320.964844 C 507.214844 326.976563 504.648438 332.980469 502.132813 339.003906 C 501.902344 339.554688 501.617188 339.660156 501.097656 339.652344 C 498.980469 339.632813 496.863281 339.644531 494.746094 339.644531 "/>
<path style=" stroke:none;fill-rule:nonzero;fill:rgb(100%,100%,100%);fill-opacity:1;" d="M 233.957031 248.464844 C 233.957031 264.769531 233.957031 281.078125 233.957031 297.386719 C 233.957031 320.761719 219.464844 337.859375 196.378906 341.320313 C 186.660156 342.777344 177.042969 342 167.8125 338.242188 C 166.964844 337.898438 166.800781 337.558594 167.117188 336.691406 C 168.355469 333.296875 169.53125 329.878906 170.6875 326.457031 C 171.074219 325.308594 171.667969 325.933594 172.195313 326.203125 C 184.542969 332.476563 201.613281 330.035156 210.929688 320.578125 C 217.132813 314.277344 220.292969 306.542969 220.339844 297.804688 C 220.523438 264.453125 220.503906 231.097656 220.527344 197.746094 C 220.527344 196.714844 220.714844 196.328125 221.851563 196.351563 C 225.453125 196.429688 229.0625 196.417969 232.667969 196.359375 C 233.691406 196.339844 233.984375 196.617188 233.980469 197.660156 C 233.949219 214.59375 233.957031 231.527344 233.957031 248.464844 C 233.957031 264.769531 233.957031 231.527344 233.957031 248.464844 "/>
<path style=" stroke:none;fill-rule:nonzero;fill:rgb(100%,100%,100%);fill-opacity:1;" d="M 295.121094 284.113281 C 295.121094 266.042969 295.132813 247.976563 295.101563 229.90625 C 295.097656 228.90625 295.308594 228.558594 296.375 228.582031 C 299.585938 228.65625 302.804688 228.65625 306.015625 228.585938 C 307.109375 228.558594 307.480469 228.796875 307.464844 229.976563 C 307.394531 235.226563 307.429688 240.480469 307.4375 245.734375 C 307.441406 246.023438 307.53125 246.316406 307.582031 246.609375 C 307.785156 246.40625 308.011719 246.21875 308.191406 246 C 316.09375 236.59375 325.121094 228.921875 337.761719 226.839844 C 339.371094 226.574219 341.007813 226.5 342.617188 226.242188 C 344.523438 225.9375 345.160156 226.554688 345.046875 228.570313 C 344.851563 231.96875 344.988281 235.390625 344.996094 238.800781 C 345 239.492188 345.132813 239.90625 344.003906 239.726563 C 334.996094 238.273438 327.183594 241.351563 319.90625 246.316406 C 315.050781 249.636719 310.621094 253.382813 307.8125 258.695313 C 307.5625 259.175781 307.449219 259.78125 307.449219 260.328125 C 307.429688 286.316406 307.425781 312.304688 307.457031 338.289063 C 307.457031 339.347656 307.226563 339.699219 306.113281 339.671875 C 302.902344 339.59375 299.683594 339.601563 296.472656 339.671875 C 295.40625 339.691406 295.09375 339.429688 295.097656 338.320313 C 295.132813 320.253906 295.121094 302.183594 295.121094 284.113281 "/>
<path style=" stroke:none;fill-rule:nonzero;fill:rgb(100%,100%,100%);fill-opacity:1;" d="M 270.183594 284.222656 C 270.183594 302.101563 270.167969 319.980469 270.21875 337.859375 C 270.222656 339.195313 269.835938 339.476563 268.585938 339.441406 C 265.449219 339.351563 262.3125 339.390625 259.175781 339.425781 C 258.410156 339.433594 258.175781 339.207031 258.175781 338.429688 C 258.191406 302.242188 258.191406 266.054688 258.171875 229.863281 C 258.171875 229.011719 258.453125 228.820313 259.246094 228.828125 C 262.421875 228.867188 265.597656 228.894531 268.773438 228.816406 C 269.894531 228.792969 270.214844 229.078125 270.214844 230.238281 C 270.175781 248.234375 270.183594 266.230469 270.183594 284.222656 "/>
<path style=" stroke:none;fill-rule:nonzero;fill:rgb(100%,79.998779%,1.599121%);fill-opacity:1;" d="M 273.320313 203.394531 C 273.320313 207.167969 271.128906 210.648438 267.554688 211.996094 C 263.890625 213.375 259.695313 212.363281 257.125 209.402344 C 254.640625 206.539063 253.894531 202.128906 255.886719 198.800781 C 257.882813 195.476563 262.105469 193.789063 265.882813 194.363281 C 270.285156 195.03125 273.320313 199.027344 273.320313 203.394531 C 273.320313 208.679688 273.320313 198.273438 273.320313 203.394531 "/>
<g clip-path="url(#clip3)" clip-rule="nonzero">
<path style=" stroke:none;fill-rule:nonzero;fill:rgb(100%,79.998779%,1.599121%);fill-opacity:1;" d="M 177.789063 200.820313 C 177.546875 200.824219 177.460938 200.824219 177.3125 200.824219 C 173.085938 200.835938 169.394531 201.019531 165.3125 200.203125 C 156.019531 198.351563 154.355469 203.125 153.230469 210.96875 C 147.128906 253.578125 143.167969 296.34375 142.949219 339.402344 C 142.742188 380.058594 144.855469 420.652344 146.703125 461.253906 C 147.953125 488.765625 148.378906 516.3125 149.171875 543.84375 C 149.175781 543.941406 149.136719 544.039063 149.132813 544.136719 C 149.035156 557.121094 149.035156 557.109375 135.664063 556.09375 C 132.523438 555.855469 133.5 553.414063 133.347656 551.714844 C 130.867188 523.605469 129.820313 495.285156 121.316406 468.050781 C 120.59375 465.746094 120.132813 462.324219 117.058594 462.417969 C 114.125 462.507813 114.074219 465.941406 113.421875 468.144531 C 109.824219 480.28125 109.242188 492.855469 109.027344 505.355469 C 108.753906 521.253906 109.273438 537.164063 109.546875 553.070313 C 109.585938 555.277344 109.144531 556.128906 106.6875 556.148438 C 90.445313 556.273438 90.777344 556.289063 88.753906 540.210938 C 86.789063 524.601563 83.886719 509.097656 77.433594 494.59375 C 75.113281 489.382813 72.652344 483.410156 65.925781 482.71875 C 59.5625 482.066406 55.75 486.894531 52.390625 491.347656 C 39.175781 508.867188 32.023438 529.367188 24.597656 549.65625 C 22.710938 554.8125 20.359375 557.097656 14.820313 556.175781 C 11.855469 555.683594 8.660156 555.660156 5.703125 556.179688 C -0.195313 557.210938 -0.519531 553.660156 0.375 549.78125 C 4.089844 533.648438 7.175781 517.371094 12.425781 501.601563 C 21.351563 474.769531 35.652344 451.449219 58.164063 434.121094 C 86.082031 412.632813 100.675781 383.894531 108.035156 350.207031 C 115.777344 314.757813 121.15625 278.957031 126.265625 243.085938 C 128.960938 224.15625 131.769531 205.242188 134.75 186.355469 C 135.121094 183.984375 134.359375 183.605469 132.554688 183.03125 C 120.113281 179.039063 112.5625 170.863281 110.914063 157.609375 C 110.582031 154.929688 111.023438 153.929688 114.101563 153.941406 C 121.527344 153.972656 128.515625 155.382813 135.0625 158.917969 C 135.632813 159.226563 136.3125 159.335938 136.941406 159.535156 C 136.898438 158.882813 136.875 158.226563 136.808594 157.574219 C 136.382813 153.320313 133.894531 150.335938 130.800781 147.683594 C 128.816406 145.984375 128.855469 143.761719 130.234375 141.902344 C 131.894531 139.664063 134.421875 138.386719 137.222656 139.199219 C 139.511719 139.859375 141.199219 141.496094 141.402344 144.207031 C 141.566406 146.429688 141.609375 148.71875 142.210938 150.832031 C 142.90625 153.277344 144.84375 154.789063 147.464844 154.820313 C 149.234375 154.84375 150.738281 153.988281 151.160156 152.046875 C 151.742188 149.371094 150.308594 147.613281 148.359375 146.078125 C 146.027344 144.25 143.996094 142.09375 145.359375 138.882813 C 146.894531 135.257813 150.277344 134.609375 153.507813 135.566406 C 156.480469 136.445313 156.992188 139.417969 156.941406 142.308594 C 156.898438 144.710938 156.671875 147.148438 156.988281 149.507813 C 157.578125 153.898438 159.15625 155.832031 164.128906 153.207031 C 169.734375 150.25 175.960938 148.785156 182.410156 148.097656 C 188.710938 147.425781 189.664063 150.21875 187.917969 155.15625 C 185.703125 161.433594 182.453125 167.152344 176.5625 170.695313 C 174.308594 172.046875 175.160156 173.039063 176.386719 173.976563 C 181.507813 177.882813 186.042969 182.554688 192.199219 185.089844 C 196.257813 186.753906 197.769531 190.445313 196.753906 194.582031 C 195.847656 198.257813 192.988281 200.164063 189.128906 200.34375 C 185.574219 200.507813 182.019531 200.65625 178.460938 200.8125 C 178.320313 200.820313 178.140625 200.808594 177.789063 200.820313 "/>
</g>
</g>
</svg>
